Coordinates
version=1
nRows=8
nColumns=28
inDegrees=yes

Units are S.I. units (second, meters, Newtons, ...)
Angles are in degrees.

endheader
time	pelvis_tilt	pelvis_list	pelvis_rotation	pelvis_tx	pelvis_ty	pelvis_tz	hip_flexion_r	hip_adduction_r	hip_rotation_r	knee_angle_r	ankle_angle_r	subtalar_angle_r	mtp_angle_r	hip_flexion_l	hip_adduction_l	hip_rotation_l	knee_angle_l	socket_flexion	socket_adduction	socket_rotation	socket_tx	socket_ty	socket_tz	foot_flex	lumbar_extension	lumbar_bending	lumbar_rotation
      0.00000000	     -3.24531851	     -2.48684980	      1.30011913	     -0.81508573	      0.96846755	      0.29274348	    -18.95089976	      4.04459905	      4.47595492	     -6.59799639	     -5.66816014	    -23.86782022	     11.75137004	     27.57659914	     -1.64736805	      6.75306199	     -7.63722939	     -4.76386669	      0.00000000	      0.00000000	      0.00000000	      0.00000000	      0.00000000	     -1.27885849	     -5.69999363	      1.24706688	      1.96828155
      0.00416667	     -3.26826566	     -2.41031305	      1.25073037	     -0.80949876	      0.96733644	      0.29215393	    -19.11611312	      3.93596324	      4.50452215	     -6.84256737	     -5.76744417	    -23.87649889	     11.75667532	     27.53908664	     -1.57952158	      6.83805776	     -7.84579446	     -4.60103326	      0.00000000	      0.00000000	      0.00000000	      0.00000000	      0.00000000	     -1.68084657	     -5.62787756	      1.12749254	      1.96849429
      0.00833333	     -3.28410208	     -2.29045615	      1.17839986	     -0.80363247	      0.96621628	      0.29161013	    -19.27745973	      3.76862736	      4.45796897	     -7.12946976	     -5.90524014	    -23.90363697	     11.77277574	     27.48749378	     -1.48278353	      6.86318645	     -8.12299543	     -4.51904827	      0.00000000	      0.00000000	      0.00000000	      0.00000000	      0.00000000	     -2.20400051	     -5.54883744	      0.93988898	      1.98754116
      0.01250000	     -3.23212451	     -2.04118905	      1.10003415	     -0.79737961	      0.96512286	      0.29105876	    -19.53300127	      3.45065605	      4.18906669	     -7.39910503	     -6.19734342	    -23.97581696	     12.01510066	     27.43771776	     -1.24280417	      6.68393837	     -8.82565527	     -4.77268376	      0.00000000	      0.00000000	      0.00000000	      0.00000000	      0.00000000	     -2.69495245	     -5.52381508	      0.57818872	      2.16041017
      0.01666667	     -3.25758583	     -1.96211122	      1.07744500	     -0.79128613	      0.96396578	      0.29033854	    -19.68054104	      3.34580046	      4.23183661	     -7.71296693	     -6.30705806	    -23.96574360	     12.06134870	     27.42383013	     -1.15217646	      6.76056546	     -9.10444919	     -4.59631982	      0.00000000	      0.00000000	      0.00000000	      0.00000000	      0.00000000	     -3.17412678	     -5.45456491	      0.44993993	      2.16367591
      0.02083333	     -3.43676140	     -1.85501139	      1.16707760	     -0.78500713	      0.96236343	      0.28936036	    -19.55553122	      3.18540197	      3.62324856	     -8.20597031	     -6.66214347	    -23.89168148	     14.42247004	     27.89400224	     -0.92567150	      6.80189502	    -10.51906902	     -5.26598611	      0.00000000	      0.00000000	      0.00000000	      0.00000000	      0.00000000	     -3.81026018	     -5.17909361	      0.28423067	      2.07297402
      0.02500000	     -3.46528017	     -1.73027741	      1.12363322	     -0.77859535	      0.96126707	      0.28865638	    -19.66385115	      3.02379795	      3.60085016	     -8.59784335	     -6.84107180	    -23.88437407	     14.44238819	     27.84740350	     -0.79820224	      6.81857808	    -10.79178190	     -5.10082602	      0.00000000	      0.00000000	      0.00000000	      0.00000000	      0.00000000	     -4.36124968	     -5.09077671	      0.09198953	      2.08477809
      0.02916667	     -3.49822560	     -1.58814215	      1.12437650	     -0.77221839	      0.96017886	      0.28783689	    -19.74957558	      2.85873174	      3.59809686	     -9.00700691	     -7.03291326	    -23.87080819	     14.45955364	     27.84385968	     -0.62018824	      6.80626755	    -11.10799565	     -4.90539084	      0.00000000	      0.00000000	      0.00000000	      0.00000000	      0.00000000	     -4.86602848	     -5.03631147	     -0.12401702	      2.09133751
